<?xml version="1.0" encoding="UTF-8"?> <svg xmlns="http://www.w3.org/2000/svg" height="512px" viewBox="0 0 64 64" width="512px"><g><g id="Employee-Businessman-Business_Woman-Management-Worker" data-name="Employee-Businessman-Business Woman-Management-Worker"><path d="m13 30h2v2h-2z" data-original="#000000" class="active-path" data-old_color="#000000" fill="#FFFFFF"></path><path d="m19 30h2v2h-2z" data-original="#000000" class="active-path" data-old_color="#000000" fill="#FFFFFF"></path><path d="m43 30h2v2h-2z" data-original="#000000" class="active-path" data-old_color="#000000" fill="#FFFFFF"></path><path d="m49 30h2v2h-2z" data-original="#000000" class="active-path" data-old_color="#000000" fill="#FFFFFF"></path><path d="m58.01 44.16a5.956 5.956 0 0 0 .75-9.82 4.068 4.068 0 0 0 .24-1.34 4 4 0 0 0 -3-3.87v-3.13a9.012 9.012 0 0 0 -7.88-8.93l-.24 1.98a7.014 7.014 0 0 1 6.12 6.95v1h-1.34a2.956 2.956 0 0 1 -2.12-.88l-1.83-1.83a1.033 1.033 0 0 0 -.81-.29.989.989 0 0 0 -.73.45l-.81 1.21a3.006 3.006 0 0 1 -2.5 1.34h-1.86v2h1.86a4.974 4.974 0 0 0 4.16-2.23l.14-.2.96.97a4.994 4.994 0 0 0 3.54 1.46h.34v3a6 6 0 0 1 -12 0v-3h-2a4 4 0 0 0 -4 4 4.174 4.174 0 0 0 .24 1.35 5.947 5.947 0 0 0 .75 9.81 9 9 0 0 0 -3.99 7.44 9.01 9.01 0 0 0 -5.92-8.45l-5.08-1.85v-2.38a8.06 8.06 0 0 0 3.74-4.92h.26a3 3 0 0 0 0-6h-2v4a6 6 0 0 1 -12 0v-3h5a5.018 5.018 0 0 0 4.33-2.5l-1.73-1a3.028 3.028 0 0 1 -2.6 1.5h-5v-2a6.023 6.023 0 0 1 5.14-5.94l-.28-1.98a8.034 8.034 0 0 0 -6.86 7.92v3a3 3 0 0 0 0 6h.26a8.06 8.06 0 0 0 3.74 4.92v2.38l-5.08 1.85a9.01 9.01 0 0 0 -5.92 8.45v9.4a1 1 0 0 0 1 1h28a1 1 0 0 0 1-1 1 1 0 0 0 1 1h28a1 1 0 0 0 1-1v-9.4a9 9 0 0 0 -3.99-7.44zm-33.01-14.16a1 1 0 0 1 0 2zm-16 2a1 1 0 0 1 0-2zm11.06 11.09 1.86.67-1.08 1.66-1.82-1.81zm-5.06-3.35a7.822 7.822 0 0 0 4 0v1.64l-1.24.62h-1.52l-1.24-.62zm3 13.26v-1h2v4h-6v-4h2v1zm-1-3.91-1.78-2.89 1.78-1.79 1.78 1.79zm-3.06-6 1.04.52-1.82 1.81-1.08-1.66zm16.06 16.91h-26v-8.4a7.03 7.03 0 0 1 4.61-6.58l1.54-.56 2.01 3.09a1.059 1.059 0 0 0 .74.45h.1a1.007 1.007 0 0 0 .71-.29l.05-.06 1.45 2.35h-2.21a1 1 0 0 0 -1 1v6a1 1 0 0 0 1 1h8a1 1 0 0 0 1-1v-6a1 1 0 0 0 -1-1h-2.21l1.45-2.35.05.06a1.007 1.007 0 0 0 .71.29h.1a1.059 1.059 0 0 0 .74-.45l2.01-3.09 1.54.56a7.03 7.03 0 0 1 4.61 6.58zm21-21.08a8.005 8.005 0 0 0 4-6.92v-1a2.006 2.006 0 0 1 2 2 1.857 1.857 0 0 1 -.05.34 6.45 6.45 0 0 0 -.75-.22l-.4 1.96a3.992 3.992 0 0 1 -.27 7.87l-4.53-1.65zm-6.66 4.02a.992.992 0 0 0 .66-.94v-2.26a7.822 7.822 0 0 0 4 0v2.26a.992.992 0 0 0 .66.94l.7.25a7.374 7.374 0 0 1 -6.72 0zm3.66 10.06v-1h2v4h-6v-4h2v1zm-1-3.67-2.81-3.75a9.61 9.61 0 0 0 5.62 0zm-12-10.33a4.013 4.013 0 0 1 3.19-3.92l-.4-1.96a5.772 5.772 0 0 0 -.74.22 1.857 1.857 0 0 1 -.05-.34 2.006 2.006 0 0 1 2-2v1a8.005 8.005 0 0 0 4 6.92v2.38l-4.53 1.65a4.007 4.007 0 0 1 -3.47-3.95zm25 21h-26v-8.4a7.03 7.03 0 0 1 4.61-6.58l2.09-.76 4.3 5.74h-2a1 1 0 0 0 -1 1v6a1 1 0 0 0 1 1h8a1 1 0 0 0 1-1v-6a1 1 0 0 0 -1-1h-2l4.3-5.74 2.09.76a7.03 7.03 0 0 1 4.61 6.58z" data-original="#000000" class="active-path" data-old_color="#000000" fill="#FFFFFF"></path><path d="m18.858 18.99 2.682.383a10.855 10.855 0 0 0 .678 1.639l-1.624 2.167a1 1 0 0 0 .093 1.306l2.828 2.828a1 1 0 0 0 1.307.093l2.166-1.625a10.86 10.86 0 0 0 1.639.679l.383 2.682a1 1 0 0 0 .99.858h4a1 1 0 0 0 .99-.858l.383-2.682a10.9 10.9 0 0 0 1.639-.679l2.167 1.625a1 1 0 0 0 1.306-.093l2.828-2.828a1 1 0 0 0 .093-1.306l-1.625-2.167a10.86 10.86 0 0 0 .679-1.639l2.682-.383a1 1 0 0 0 .858-.99v-4a1 1 0 0 0 -.858-.99l-2.682-.383a10.86 10.86 0 0 0 -.679-1.639l1.625-2.167a1 1 0 0 0 -.093-1.306l-2.828-2.828a1 1 0 0 0 -1.306-.093l-2.167 1.625a10.9 10.9 0 0 0 -1.639-.679l-.383-2.682a1 1 0 0 0 -.99-.858h-4a1 1 0 0 0 -.99.858l-.383 2.682a10.86 10.86 0 0 0 -1.639.679l-2.166-1.625a1 1 0 0 0 -1.307.093l-2.828 2.828a1 1 0 0 0 -.093 1.306l1.624 2.167a10.855 10.855 0 0 0 -.678 1.639l-2.682.383a1 1 0 0 0 -.858.99v4a1 1 0 0 0 .858.99zm1.142-4.123 2.463-.351a1 1 0 0 0 .828-.744 8.859 8.859 0 0 1 .975-2.356 1 1 0 0 0 -.06-1.11l-1.492-1.991 1.6-1.6 1.99 1.492a1 1 0 0 0 1.111.061 8.923 8.923 0 0 1 2.357-.977 1 1 0 0 0 .742-.827l.353-2.464h2.266l.351 2.463a1 1 0 0 0 .744.827 8.9 8.9 0 0 1 2.356.977 1 1 0 0 0 1.11-.061l1.991-1.492 1.6 1.6-1.492 1.991a1 1 0 0 0 -.061 1.11 8.9 8.9 0 0 1 .977 2.356 1 1 0 0 0 .827.744l2.464.352v2.266l-2.463.351a1 1 0 0 0 -.827.744 8.9 8.9 0 0 1 -.977 2.356 1 1 0 0 0 .061 1.11l1.492 1.991-1.6 1.6-1.991-1.492a1 1 0 0 0 -1.11-.061 8.9 8.9 0 0 1 -2.356.977 1 1 0 0 0 -.744.827l-.352 2.464h-2.266l-.352-2.463a1 1 0 0 0 -.742-.827 8.923 8.923 0 0 1 -2.357-.977 1 1 0 0 0 -1.111.061l-1.99 1.492-1.6-1.6 1.492-1.991a1 1 0 0 0 .06-1.11 8.859 8.859 0 0 1 -.975-2.356 1 1 0 0 0 -.828-.744l-2.464-.352z" data-original="#000000" class="active-path" data-old_color="#000000" fill="#FFFFFF"></path><path d="m32 22a6 6 0 1 0 -6-6 6.006 6.006 0 0 0 6 6zm0-10a4 4 0 1 1 -4 4 4 4 0 0 1 4-4z" data-original="#000000" class="active-path" data-old_color="#000000" fill="#FFFFFF"></path><path d="m31 6h2v2h-2z" data-original="#000000" class="active-path" data-old_color="#000000" fill="#FFFFFF"></path><path d="m24.636 8.636h2v2h-2z" transform="matrix(.707 -.707 .707 .707 .697 20.954)" data-original="#000000" class="active-path" data-old_color="#000000" fill="#FFFFFF"></path><path d="m22 15h2v2h-2z" data-original="#000000" class="active-path" data-old_color="#000000" fill="#FFFFFF"></path><path d="m24.636 21.364h2v2h-2z" transform="matrix(.707 -.707 .707 .707 -8.306 24.672)" data-original="#000000" class="active-path" data-old_color="#000000" fill="#FFFFFF"></path><path d="m31 24h2v2h-2z" data-original="#000000" class="active-path" data-old_color="#000000" fill="#FFFFFF"></path><path d="m37.364 21.364h2v2h-2z" transform="matrix(.707 -.707 .707 .707 -4.577 33.678)" data-original="#000000" class="active-path" data-old_color="#000000" fill="#FFFFFF"></path><path d="m40 15h2v2h-2z" data-original="#000000" class="active-path" data-old_color="#000000" fill="#FFFFFF"></path><path d="m37.364 8.636h2v2h-2z" transform="matrix(.707 -.707 .707 .707 4.423 29.95)" data-original="#000000" class="active-path" data-old_color="#000000" fill="#FFFFFF"></path><path d="m52 8a1 1 0 0 1 1-1h5.586l-1.293 1.293 1.414 1.414 3-3a1 1 0 0 0 0-1.414l-3-3-1.414 1.414 1.293 1.293h-5.586a3 3 0 0 0 -3 3v7h2z" data-original="#000000" class="active-path" data-old_color="#000000" fill="#FFFFFF"></path><path d="m54 9h2v2h-2z" data-original="#000000" class="active-path" data-old_color="#000000" fill="#FFFFFF"></path><path d="m54 13h2v2h-2z" data-original="#000000" class="active-path" data-old_color="#000000" fill="#FFFFFF"></path><path d="m5.293 9.707 1.414-1.414-1.293-1.293h5.586a1 1 0 0 1 1 1v7h2v-7a3 3 0 0 0 -3-3h-5.586l1.293-1.293-1.414-1.414-3 3a1 1 0 0 0 0 1.414z" data-original="#000000" class="active-path" data-old_color="#000000" fill="#FFFFFF"></path><path d="m8 9h2v2h-2z" data-original="#000000" class="active-path" data-old_color="#000000" fill="#FFFFFF"></path><path d="m8 13h2v2h-2z" data-original="#000000" class="active-path" data-old_color="#000000" fill="#FFFFFF"></path></g></g></svg> 