<?xml version="1.0" encoding="UTF-8"?> <svg xmlns="http://www.w3.org/2000/svg" id="_x33_0" height="512px" viewBox="0 0 64 64" width="512px" class=""><g><path d="m58 1h-32c-1.654 0-3 1.346-3 3v2c0 .39.075.763.211 1.105-1.273.348-2.211 1.514-2.211 2.895v2 7h-15c-2.757 0-5 2.243-5 5v4 30c0 2.757 2.243 5 5 5h26c2.757 0 5-2.243 5-5v-1h21c2.757 0 5-2.243 5-5v-42-4c0-2.757-2.243-5-5-5zm-55 23c0-1.654 1.346-3 3-3h26c.551 0 1 .449 1 1v2c0 .551-.449 1-1 1h-25v2h27c.551 0 1 .449 1 1v2c0 .551-.449 1-1 1h-28c-1.654 0-3-1.346-3-3zm29 37h-26c-1.654 0-3-1.346-3-3v-26.026c.838.635 1.87 1.026 3 1.026h28c.352 0 .686-.072 1-.184v25.184c0 1.654-1.346 3-3 3zm26-6h-21v-25-2c0-1.381-.938-2.547-2.211-2.895.136-.342.211-.715.211-1.105v-2c0-1.654-1.346-3-3-3h-9v-4.184c.314.112.648.184 1 .184h34c1.13 0 2.162-.391 3-1.026v38.026c0 1.654-1.346 3-3 3zm0-42h-34c-.551 0-1-.449-1-1v-2c0-.551.449-1 1-1h33v-2h-31c-.551 0-1-.449-1-1v-2c0-.551.449-1 1-1h32c1.654 0 3 1.346 3 3v4c0 1.654-1.346 3-3 3z" data-original="#000000" class="active-path" data-old_color="#000000" fill="#FFFFFF"></path><path d="m5 37h2v10h-2z" data-original="#000000" class="active-path" data-old_color="#000000" fill="#FFFFFF"></path><path d="m5 49h2v4h-2z" data-original="#000000" class="active-path" data-old_color="#000000" fill="#FFFFFF"></path></g></svg> 