<?xml version="1.0" encoding="UTF-8"?> <svg xmlns="http://www.w3.org/2000/svg" id="outline" viewBox="0 0 512 512" width="512px" height="512px"><g><path d="M469.65674,290.34326l-.7132-.71313-31.89618-195.364.60938-.60937-.84717-.84717-4.91406-30.09863A7.99986,7.99986,0,0,0,424,56H390.55847l-6.71374-33.56885A8.00041,8.00041,0,0,0,376,16H328a8.00041,8.00041,0,0,0-7.84473,6.43115L313.44153,56H280a7.99986,7.99986,0,0,0-7.89551,6.71094l-20.898,128,15.791,2.57812,2.66357-16.31445L466.34326,373.65674l.092-.092,8.10864,49.66577L365.65674,314.34326l-11.31348,11.31348L396.68652,368l-42.34326,42.34326,11.31348,11.31348L408,379.31348,428.68652,400l-48,48H352v16H464v16H336v16H472a7.99977,7.99977,0,0,0,8-8V464h8a7.99985,7.99985,0,0,0,7.89551-9.28906L469.14374,290.8562ZM437.9,198.7865l-29.9,29.9L387.31348,208l44.77978-44.77979Zm3.17572,19.45123,8.49256,52.01715L419.31348,240ZM428.91754,143.769,376,196.68652,355.31348,176l67.79736-67.79736ZM320,72h28.68652l44,44L376,132.68652,315.31348,72Zm99.93512,16.7514L404,104.68652,371.31348,72H417.2002ZM334.55859,32h34.88282l4.80029,24H329.7583ZM292.68652,72l72,72L344,164.68652,281.81927,102.5058,286.7998,72Zm-19.84967,85.52338,5.8067-35.56635L453.98334,297.29688l8.07275,49.4458ZM403.31348,448,440,411.31348,476.68652,448Z" data-original="#000000" class="active-path" data-old_color="#000000" fill="#FFFFFF"></path><path d="M72,496H280a56.06353,56.06353,0,0,0,56-56V408a23.99637,23.99637,0,0,0-11.10046-20.22278A23.93374,23.93374,0,0,0,321.86945,360a23.93374,23.93374,0,0,0,3.03009-27.77722A23.99637,23.99637,0,0,0,336,312V280a56.06353,56.06353,0,0,0-56-56H72a56.06353,56.06353,0,0,0-56,56v32a23.99637,23.99637,0,0,0,11.10046,20.22278A23.93374,23.93374,0,0,0,30.13055,360a23.93374,23.93374,0,0,0-3.03009,27.77722A23.99637,23.99637,0,0,0,16,408v32A56.06353,56.06353,0,0,0,72,496ZM32,440V408a7.94635,7.94635,0,0,1,.9375-3.749L52.68652,424,32.25165,444.43481A40.21925,40.21925,0,0,1,32,440Zm8-64a8.00917,8.00917,0,0,1,8-8H304a8,8,0,0,1,0,16H48A8.00917,8.00917,0,0,1,40,376Zm0-32a8.00917,8.00917,0,0,1,8-8H304a8,8,0,0,1,0,16H48A8.00917,8.00917,0,0,1,40,344Zm0-24a8.00917,8.00917,0,0,1-8-8V291.31348L60.68652,320Zm48.68652-20L76,312.68652,33.27637,269.96289a39.94686,39.94686,0,0,1,8.84955-16.5235Zm146.627-60h33.373L252,256.68652Zm57.373,80h-25.373l-80-80h25.373ZM320,280v32a8.00583,8.00583,0,0,1-5.2016,7.48486L291.31348,296l27.10595-27.106A39.86385,39.86385,0,0,1,320,280ZM144,267.31348,156.68652,280l-40,40h-25.373Zm16,32V320H139.31348Zm16,0L196.68652,320H176ZM219.31348,320l-64-64L168,243.31348,244.68652,320ZM128,260.68652V240h20.68652Zm-16,16-12,12-4-4V240h16ZM312,400a8.00917,8.00917,0,0,1,8,8v28.68652L283.31348,400H312Zm-6.175,70.51147L255.31348,420,268,407.31348l48.66144,48.66137A40.19713,40.19713,0,0,1,305.825,470.51147ZM200,452.68652,187.31348,440l40-40h25.373Zm-16-32V400h20.68652Zm-16,0L147.31348,400H168ZM124.68652,400l64,64L176,476.68652,99.31348,400ZM216,459.31348V480H195.31348Zm16-16,12-12,4,4V480H232ZM76.68652,400l80,80h-25.373l-80-80Zm32,80h-33.373L92,463.31348ZM38.10736,461.20605,64,435.31348,80.68652,452,56.02509,476.66138A40.24341,40.24341,0,0,1,38.10736,461.20605ZM264,480V451.31348l27.106,27.10595A39.86607,39.86607,0,0,1,280,480Zm46.51147-225.82495L280,284.68652,263.31348,268l26.72363-26.72363A40.065,40.065,0,0,1,310.51147,254.17505ZM80,240v28.68652l-24.92-24.92A39.75183,39.75183,0,0,1,72,240Z" data-original="#000000" class="active-path" data-old_color="#000000" fill="#FFFFFF"></path></g></svg> 