<?xml version="1.0" encoding="UTF-8"?> <svg xmlns="http://www.w3.org/2000/svg" height="512px" viewBox="0 0 64 64" width="512px"><g><path d="m7 58h15v-2h-14v-40h33v9h2v-2h8a4 4 0 0 0 4-4v-1h5a1 1 0 0 0 1-1v-2a4 4 0 0 0 -4-4h-8v-1a4 4 0 0 0 -4-4h-35a4 4 0 0 0 -4 4v47a1 1 0 0 0 1 1zm52-43v1h-4v-1a2 2 0 0 1 4 0zm-5.444-2a3.959 3.959 0 0 0 -.556 2v4a2 2 0 0 1 -4 0v-6zm-6.556-3v9a3.959 3.959 0 0 0 .556 2h-4.556v-11a2 2 0 0 1 4 0zm-37-2h31.556a3.959 3.959 0 0 0 -.556 2v4h-33v-4a2 2 0 0 1 2-2z" data-original="#000000" class="active-path" data-old_color="#000000" fill="#FFFFFF"></path><path d="m10 10h2v2h-2z" data-original="#000000" class="active-path" data-old_color="#000000" fill="#FFFFFF"></path><path d="m14 10h2v2h-2z" data-original="#000000" class="active-path" data-old_color="#000000" fill="#FFFFFF"></path><path d="m18 10h2v2h-2z" data-original="#000000" class="active-path" data-old_color="#000000" fill="#FFFFFF"></path><path d="m56.556 40.6-1.556-1.114v-3.486a1 1 0 0 0 -1-1h-.719l1.113-4.448a2.861 2.861 0 0 0 -2.775-3.552 2.878 2.878 0 0 0 -1.715.572l-2.904 2.178-2.9-2.179a2.884 2.884 0 0 0 -1.719-.571 2.859 2.859 0 0 0 -2.774 3.552l1.113 4.448h-.72a1 1 0 0 0 -1 1v3.486l-1.556 1.114a12.948 12.948 0 0 0 -1.111.889l1.334 1.49a11.119 11.119 0 0 1 .939-.752l1.714-1.227h13.36l1.714 1.225a11.021 11.021 0 0 1 4.606 8.95v1.825a7.008 7.008 0 0 1 -7 7h-11v2h11a9.01 9.01 0 0 0 9-9v-1.825a13.024 13.024 0 0 0 -5.444-10.575zm-15.009-10.533a.853.853 0 0 1 .157-.737.884.884 0 0 1 1.192-.159l3.504 2.629a1 1 0 0 0 1.2 0l3.5-2.628a.881.881 0 0 1 1.192.158.853.853 0 0 1 .157.737l-1.229 4.933h-8.44zm-.547 8.933v-2h12v2z" data-original="#000000" class="active-path" data-old_color="#000000" fill="#FFFFFF"></path><path d="m44 47a3 3 0 0 0 -3-3h-10a3 3 0 0 0 -3 3 2.966 2.966 0 0 0 .184 1h-1.184a2.993 2.993 0 0 0 -.78 5.884 2.941 2.941 0 0 0 0 2.232 2.993 2.993 0 0 0 .78 5.884h10a2.99 2.99 0 0 0 2.78-4.116 2.983 2.983 0 0 0 0-5.768 2.877 2.877 0 0 0 .036-2.116h1.184a3 3 0 0 0 3-3zm-14 0a1 1 0 0 1 1-1h10a1 1 0 0 1 0 2h-10a1 1 0 0 1 -1-1zm7 13h-10a1 1 0 0 1 0-2h10a1 1 0 0 1 0 2zm2-4h-10a1 1 0 0 1 0-2h10a1 1 0 0 1 0 2zm-1-5a1 1 0 0 1 -1 1h-10a1 1 0 0 1 0-2h10a1 1 0 0 1 1 1z" data-original="#000000" class="active-path" data-old_color="#000000" fill="#FFFFFF"></path><path d="m26 35a1 1 0 0 0 1-1v-14a1 1 0 0 0 -1-1h-14a1 1 0 0 0 -1 1v14a1 1 0 0 0 1 1zm-13-14h12v12h-12z" data-original="#000000" class="active-path" data-old_color="#000000" fill="#FFFFFF"></path><path d="m38 20a1 1 0 0 0 -1-1h-7a1 1 0 0 0 -1 1v5a1 1 0 0 0 1 1h7a1 1 0 0 0 1-1zm-2 4h-5v-3h5z" data-original="#000000" class="active-path" data-old_color="#000000" fill="#FFFFFF"></path><path d="m38 34v-5a1 1 0 0 0 -1-1h-7a1 1 0 0 0 -1 1v5a1 1 0 0 0 1 1h7a1 1 0 0 0 1-1zm-2-1h-5v-3h5z" data-original="#000000" class="active-path" data-old_color="#000000" fill="#FFFFFF"></path><path d="m11 38h2v2h-2z" data-original="#000000" class="active-path" data-old_color="#000000" fill="#FFFFFF"></path><path d="m15 38h18v2h-18z" data-original="#000000" class="active-path" data-old_color="#000000" fill="#FFFFFF"></path><path d="m11 42h16v2h-16z" data-original="#000000" class="active-path" data-old_color="#000000" fill="#FFFFFF"></path><path d="m11 46h13v2h-13z" data-original="#000000" class="active-path" data-old_color="#000000" fill="#FFFFFF"></path><path d="m11 50h11v2h-11z" data-original="#000000" class="active-path" data-old_color="#000000" fill="#FFFFFF"></path><path d="m2 18h2v23h-2z" data-original="#000000" class="active-path" data-old_color="#000000" fill="#FFFFFF"></path><path d="m2 43h2v2h-2z" data-original="#000000" class="active-path" data-old_color="#000000" fill="#FFFFFF"></path></g></svg> 